<?xml version="1.0" encoding="UTF-8"?>
<svg width="233px" height="165px" viewBox="0 0 233 165" version="1.1" xmlns="http://www.w3.org/2000/svg" xmlns:xlink="http://www.w3.org/1999/xlink">
    <!-- Generator: Sketch 47 (45396) - http://www.bohemiancoding.com/sketch -->
    <title>Group 6</title>
    <desc>Created with Sketch.</desc>
    <defs>
        <filter x="-43.5%" y="-65.9%" width="187.0%" height="257.6%" filterUnits="objectBoundingBox" id="filter-1">
            <feOffset dx="0" dy="11" in="SourceAlpha" result="shadowOffsetOuter1"></feOffset>
            <feGaussianBlur stdDeviation="20.5" in="shadowOffsetOuter1" result="shadowBlurOuter1"></feGaussianBlur>
            <feColorMatrix values="0 0 0 0 0   0 0 0 0 0   0 0 0 0 0  0 0 0 0.5 0" type="matrix" in="shadowBlurOuter1" result="shadowMatrixOuter1"></feColorMatrix>
            <feMerge>
                <feMergeNode in="shadowMatrixOuter1"></feMergeNode>
                <feMergeNode in="SourceGraphic"></feMergeNode>
            </feMerge>
        </filter>
    </defs>
    <g id="Page-1" stroke="none" stroke-width="1" fill="none" fill-rule="evenodd">
        <g id="project" transform="translate(-454.000000, -260.000000)">
            <g id="Group-2" transform="translate(99.000000, 151.000000)">
                <g id="Group-6" filter="url(#filter-1)" transform="translate(395.000000, 138.000000)">
                    <path d="M153.363513,39.656481 C153.363513,39.3691048 153.297238,39.1386238 153.163175,38.9756714 C153.019763,38.8218333 152.781613,38.7358 152.447625,38.7358 L131.373825,38.7358 C131.116288,38.7358 130.906188,38.8218333 130.753425,38.9756714 C130.60025,39.1386238 130.51445,39.3691048 130.51445,39.656481 L130.51445,83.8258286 C130.51445,84.1143095 130.60025,84.3436857 130.753425,84.4972476 C130.906188,84.6604762 131.116288,84.7465095 131.373825,84.7465095 L152.447625,84.7465095 C152.781613,84.7465095 153.019763,84.6604762 153.163175,84.4972476 C153.297238,84.3436857 153.363513,84.1143095 153.363513,83.8258286 L153.363513,78.0754048 C153.363513,77.7583381 153.297238,77.5285476 153.163175,77.3755381 C153.019763,77.231919 152.781613,77.1547238 152.447625,77.1547238 L138.131263,77.1547238 L138.131263,65.5373238 L149.068425,65.5373238 C149.354838,65.5373238 149.583638,65.4511524 149.736813,65.2879238 C149.898925,65.1153048 149.984725,64.8761238 149.984725,64.5594714 L149.984725,58.8658048 C149.984725,58.5494286 149.898925,58.3095571 149.736813,58.1372143 C149.583638,57.9748143 149.354838,57.8883667 149.068425,57.8883667 L138.131263,57.8883667 L138.131263,46.3851714 L152.447625,46.3851714 C152.781613,46.375781 153.019763,46.2891952 153.163175,46.1076 C153.297238,45.9353952 153.363513,45.6953857 153.363513,45.4080095 L153.363513,39.656481 Z" id="Fill-2" fill="#FFFFFF"></path>
                    <path d="M100.7369,76.4649381 C100.745837,79.1769905 101.443925,81.228119 102.846287,82.6275762 C104.239712,84.0372524 106.282412,84.737119 108.982775,84.7465095 L116.541837,84.7465095 C119.214425,84.737119 121.256437,84.0372524 122.6599,82.6275762 C124.072437,81.228119 124.778225,79.1769905 124.7884,76.4649381 L124.7884,60.4765476 C124.7884,60.159481 124.701912,59.9292762 124.549837,59.7758524 C124.387725,59.6330619 124.158237,59.5558667 123.8721,59.5558667 L114.2515,59.5558667 C113.936625,59.5558667 113.707412,59.6330619 113.555062,59.7758524 C113.411925,59.9292762 113.3352,60.159481 113.3352,60.4765476 L113.3352,66.2273857 C113.3352,66.5147619 113.411925,66.7448286 113.555062,66.8979762 C113.707412,67.061619 113.936625,67.1476524 114.2515,67.1476524 L117.228512,67.1476524 L117.228512,74.8541952 C117.228512,75.6304286 117.028587,76.2062857 116.647437,76.5890857 C116.256112,76.9637381 115.682737,77.1547238 114.938725,77.1547238 L110.815375,77.1547238 C110.07095,77.1547238 109.4984,76.9637381 109.107075,76.5890857 C108.7251,76.2062857 108.524762,75.6304286 108.524762,74.8541952 L108.524762,48.6281143 C108.524762,47.8804667 108.71575,47.3058524 109.088375,46.912419 C109.469937,46.5292048 110.042487,46.3275857 110.815375,46.3275857 L114.938725,46.3275857 C115.682737,46.3275857 116.256112,46.5292048 116.647437,46.912419 C117.028587,47.3058524 117.228512,47.8804667 117.228512,48.6281143 L117.228512,52.9991048 C117.228512,53.2867571 117.305375,53.5169619 117.4492,53.6703857 C117.60155,53.8329238 117.83035,53.9189571 118.145637,53.9189571 L123.8721,53.9189571 C124.158237,53.9189571 124.387725,53.8329238 124.549837,53.6703857 C124.701912,53.5169619 124.7884,53.2867571 124.7884,52.9991048 L124.7884,47.0176476 C124.778225,44.305319 124.072437,42.2541905 122.6599,40.8449286 C121.256437,39.4458857 119.214425,38.7456048 116.541837,38.7358 L108.982775,38.7358 C106.282412,38.7456048 104.239712,39.4458857 102.846287,40.8449286 C101.443925,42.2541905 100.745837,44.305319 100.7369,47.0176476 L100.7369,76.4649381 Z" id="Fill-3" fill="#FFFFFF"></path>
                    <path d="M95.010025,83.8262429 C95.010025,84.142481 94.9333,84.3726857 94.7903,84.5258333 C94.637125,84.6698667 94.4087375,84.7465095 94.093725,84.7465095 L80.3499125,84.7465095 C77.6480375,84.737119 75.6064375,84.0372524 74.20325,82.6279905 C72.8099625,81.2289476 72.1133875,79.1765762 72.1040375,76.4649381 L72.1040375,47.0756476 C72.1133875,44.363319 72.8099625,42.2924429 74.20325,40.8735143 C75.6064375,39.4552762 77.6480375,38.7456048 80.3499125,38.7358 L87.22175,38.7358 L87.221475,18.6057952 C87.221475,12.8248524 82.5551375,8.13872857 76.799525,8.13872857 C71.0439125,8.13872857 66.3779875,12.8248524 66.3779875,18.6057952 L66.3779875,20.4232667 C71.9676375,20.3524238 77.5583875,20.3387524 83.14845,20.3818381 C83.7782,20.386119 84.2884625,20.9048048 84.28695,21.537419 L84.2763625,27.1248905 C84.2752625,27.4436143 84.1614125,27.7175952 83.935775,27.9418619 C83.7104125,28.1658524 83.436375,28.2777095 83.1191625,28.2750857 C56.0165375,28.0730524 28.8765125,29.1706333 1.8943375,31.7530143 C1.56035,31.7847762 1.261425,31.6849333 1.0131,31.458319 C0.764775,31.2317048 0.6369,30.941981 0.6369,30.6053048 L0.6369,25.0268095 C0.6369,24.4306524 1.0844625,23.9358571 1.676125,23.8791 C19.9310375,22.1269476 38.9741,20.9940143 58.5894375,20.5587381 L58.5894375,0.31687619 L95.010025,0.31687619 L95.010025,18.6057952 L95.010025,20.559981 C114.7696,20.9987095 133.947825,22.1440714 152.324838,23.918181 C152.916088,23.9753524 153.363513,24.4697333 153.363513,25.0658905 L153.363513,30.643281 C153.363513,30.9799571 153.235775,31.2699571 152.98745,31.4967095 C152.739125,31.7229095 152.439788,31.8231667 152.1058,31.7909905 C133.795475,30.0287571 114.691638,28.8896095 95.010025,28.4535048 L95.010025,83.8262429 Z M58.5894375,83.8258286 C58.5894375,84.1143095 58.66575,84.3436857 58.809575,84.4972476 C58.9623375,84.6604762 59.190725,84.7465095 59.50615,84.7465095 L65.461275,84.7465095 C65.7482375,84.7465095 65.9762125,84.6604762 66.1293875,84.4972476 C66.2919125,84.3436857 66.3779875,84.1143095 66.3779875,83.8258286 L66.3779875,34.688919 C66.3779875,34.1526952 66.026125,33.7005714 65.508025,33.5702095 L60.0158625,32.1914667 C59.66125,32.1022571 59.3186,32.1750333 59.03095,32.4013714 C58.7428875,32.6267429 58.5894375,32.943119 58.5894375,33.3103143 L58.5894375,83.8258286 Z M87.22175,77.1547238 L87.22175,52.2259095 L87.22175,46.3275857 L81.9537125,46.3275857 C81.2092875,46.3275857 80.636325,46.5292048 80.245,46.9218095 C79.863025,47.3156571 79.6631,47.9094667 79.6631,48.6857 L79.6631,74.8541952 C79.6631,75.6304286 79.863025,76.2062857 80.245,76.5895 C80.636325,76.9637381 81.2092875,77.1547238 81.9537125,77.1547238 L87.22175,77.1547238 Z" id="Fill-4" fill="#00C494"></path>
                    <path d="M52.8625625,47.0176476 C52.8532125,44.305319 52.156775,42.2541905 50.76335,40.8449286 C49.360575,39.4458857 47.31815,38.7456048 44.6166875,38.7358 L30.2434,38.7358 C29.9572625,38.7358 29.7281875,38.8218333 29.575425,38.9756714 C29.4127625,39.1386238 29.3266875,39.3691048 29.3266875,39.656481 L29.3266875,83.8258286 C29.3266875,84.1143095 29.4127625,84.3436857 29.575425,84.4972476 C29.7281875,84.6604762 29.9572625,84.7465095 30.2434,84.7465095 L36.199075,84.7465095 C36.4854875,84.7465095 36.7142875,84.6604762 36.86705,84.4972476 C37.029575,84.3436857 37.115375,84.1143095 37.115375,83.8258286 L37.115375,69.332319 L41.0667125,69.332319 L44.90365,83.9412762 C44.9601625,84.200481 45.0657625,84.4016857 45.2177,84.5359143 C45.370875,84.6792571 45.590325,84.7465095 45.876875,84.7465095 L51.832,84.7465095 C52.156775,84.7465095 52.38585,84.6604762 52.539025,84.4878571 C52.68175,84.3151 52.72025,84.0564476 52.6345875,83.7112095 L48.6831125,68.6426714 C50.0570125,68.0386429 51.0973375,67.099181 51.80395,65.834781 C52.509875,64.5691381 52.8625625,62.978281 52.8625625,61.0511619 L52.8625625,47.0176476 Z M37.115375,61.7409476 L37.115375,46.3275857 L42.7845,46.3275857 C43.528925,46.3275857 44.1010625,46.5292048 44.4928,46.912419 C44.8743625,47.3058524 45.0751125,47.8804667 45.0751125,48.6281143 L45.0751125,59.4412476 C45.0751125,60.1880667 44.8743625,60.7639238 44.4928,61.1467238 C44.1010625,61.5401571 43.528925,61.7409476 42.7845,61.7409476 L37.115375,61.7409476 Z" id="Fill-5" fill="#FFFFFF"></path>
                    <path d="M23.6006375,47.0176476 C23.5917,44.305319 22.884675,42.2541905 21.4721375,40.8449286 C20.0600125,39.4458857 17.9982,38.7456048 15.29715,38.7358 L1.55375,38.7358 C1.2676125,38.7358 1.0384,38.8128571 0.8856375,38.9566143 C0.7227,39.1104524 0.6369,39.3398286 0.6369,39.656481 L0.6369,83.8258286 C0.6369,84.1143095 0.7227,84.3436857 0.8856375,84.4972476 C1.0384,84.6604762 1.2676125,84.7465095 1.55375,84.7465095 L15.29715,84.7465095 C17.9982,84.737119 20.0600125,84.0372524 21.4721375,82.6275762 C22.884675,81.228119 23.5917,79.1769905 23.6006375,76.4649381 L23.6006375,65.8821476 C23.5917,65.1637762 23.4389375,64.5206667 23.1232375,63.9554429 C22.80905,63.3804143 22.38885,62.9110286 21.84435,62.5367905 C21.3002625,62.1629667 20.6899,61.913981 19.9934625,61.7989476 L19.9934625,61.6837762 C20.6899,61.5589381 21.3002625,61.3193429 21.84435,60.945519 C22.38885,60.5721095 22.80905,60.1018952 23.1232375,59.527281 C23.4389375,58.9518381 23.5917,58.3095571 23.6006375,57.6001619 L23.6006375,47.0176476 Z M15.98465,74.8541952 C15.98465,75.6304286 15.7843125,76.2062857 15.401925,76.5890857 C15.0110125,76.9637381 14.4384625,77.1547238 13.693625,77.1547238 L8.482925,77.1547238 L8.482925,65.5373238 L13.693625,65.5373238 C14.466925,65.5373238 15.039475,65.7385286 15.4218625,66.122019 C15.79325,66.5147619 15.98465,67.0897905 15.98465,67.8374381 L15.98465,74.8541952 Z M15.98465,55.7024571 C15.98465,56.4219333 15.7843125,56.9777667 15.401925,57.3605667 C15.0110125,57.7441952 14.4384625,57.9451238 13.693625,57.9451238 L8.482925,57.9451238 L8.482925,46.3275857 L13.693625,46.3275857 C14.466925,46.3275857 15.039475,46.5292048 15.4218625,46.912419 C15.79325,47.3058524 15.98465,47.8804667 15.98465,48.6281143 L15.98465,55.7024571 Z" id="Fill-6" fill="#FFFFFF"></path>
                </g>
            </g>
        </g>
    </g>
</svg>