<?xml version="1.0" encoding="UTF-8"?>
<svg width="216px" height="217px" viewBox="0 0 216 217" version="1.1" xmlns="http://www.w3.org/2000/svg" xmlns:xlink="http://www.w3.org/1999/xlink">
    <!-- Generator: Sketch 47 (45396) - http://www.bohemiancoding.com/sketch -->
    <title>iskra_07</title>
    <desc>Created with Sketch.</desc>
    <defs>
        <filter x="-48.6%" y="-40.9%" width="197.1%" height="197.8%" filterUnits="objectBoundingBox" id="filter-1">
            <feOffset dx="0" dy="11" in="SourceAlpha" result="shadowOffsetOuter1"></feOffset>
            <feGaussianBlur stdDeviation="20.5" in="shadowOffsetOuter1" result="shadowBlurOuter1"></feGaussianBlur>
            <feColorMatrix values="0 0 0 0 0   0 0 0 0 0   0 0 0 0 0  0 0 0 0.2 0" type="matrix" in="shadowBlurOuter1" result="shadowMatrixOuter1"></feColorMatrix>
            <feMerge>
                <feMergeNode in="shadowMatrixOuter1"></feMergeNode>
                <feMergeNode in="SourceGraphic"></feMergeNode>
            </feMerge>
        </filter>
    </defs>
    <g id="Page-1" stroke="none" stroke-width="1" fill="none" fill-rule="evenodd">
        <g id="project" transform="translate(-1089.000000, -334.000000)">
            <g id="Group-2-Copy" transform="translate(755.000000, 251.000000)">
                <g id="iskra_07" filter="url(#filter-1)" transform="translate(373.000000, 112.000000)">
                    <path d="M69.2696348,130.07372 C103.267004,130.07372 130.828206,102.512988 130.828206,68.5153056 C130.828206,34.5165303 103.267004,6.95626629 69.2696348,6.95626629 C35.2708596,6.95626629 7.71012697,34.5165303 7.71012697,68.5153056 C7.71012697,102.512988 35.2708596,130.07372 69.2696348,130.07372" id="Fill-2" fill="#CFDBD4"></path>
                    <path d="M132.260687,66.853709 C131.380145,32.8205742 103.514862,5.50098315 69.2696348,5.50098315 C35.0225337,5.50098315 7.1577191,32.8205742 6.27702135,66.853709 L32.269709,34.1031225 L42.3981236,46.9448483 L39.9995146,53.7388247 L44.0614382,48.960973 L69.2696348,17.1993169 L92.3917382,46.3365281 L90.5269517,53.6210652 L94.4759573,48.960973 L106.267687,34.1031225 L132.260687,66.853709 Z" id="Fill-3" fill="#F5EDE3"></path>
                    <path d="M69.2696348,99.2816281 L69.2696348,134.388499 C99.7806034,134.388499 125.235252,112.737453 131.108861,83.9624225 L106.267687,52.6625899 L69.2696348,99.2816281 Z" id="Fill-4" fill="#45291A"></path>
                    <polygon id="Fill-5" fill="#FFFFFF" points="102.780036 76.9015348 106.22911 60.8526573 124.924142 84.2307393 114.938631 81.7076551 108.544475 103.957182 100.911657 87.8139719"></polygon>
                    <path d="M69.2696348,99.2816281 L69.2696348,134.388499 C38.7577292,134.388499 13.3029247,112.737453 7.42853483,83.9624225 L32.269709,52.6625899 L69.2696348,99.2816281 Z" id="Fill-6" fill="#45291A"></path>
                    <polygon id="Fill-7" fill="#FFFFFF" points="35.8060876 76.9015348 32.3582629 60.8526573 13.6624506 84.2307393 23.6474921 81.7076551 30.0414921 103.957182 37.6739978 87.8139719"></polygon>
                    <path d="M41.6495539,129.483204 L41.6495539,122.353754 C41.6495539,110.049287 51.6278798,100.071429 63.932191,100.071429 L69.2696348,100.071429 L69.2696348,135.433342 C59.4209382,135.433342 50.0699865,133.30383 41.6495539,129.483204" id="Fill-8" fill="#000000"></path>
                    <path d="M63.932191,135.220781 L63.932191,105.408873 C54.5737427,105.408873 46.9865292,112.994369 46.9865292,122.353754 L46.9865292,131.627709 C52.3547404,133.522482 58.0348427,134.754584 63.932191,135.220781" id="Fill-9" fill="#000000"></path>
                    <path d="M63.932191,135.220781 L63.932191,105.408873 C62.5301652,105.408873 61.1687461,105.579734 59.8654258,105.901152 L59.8654258,134.771452 C61.209509,134.960429 62.5637438,135.112704 63.932191,135.220781" id="Fill-10" fill="#000000"></path>
                    <path d="M96.8878416,129.483204 L96.8878416,122.353754 C96.8878416,110.049287 86.9104528,100.071429 74.6064539,100.071429 L69.2696348,100.071429 L69.2696348,135.433342 C79.1177067,135.433342 88.4688146,133.30383 96.8878416,129.483204" id="Fill-11" fill="#000000"></path>
                    <path d="M74.6064539,135.220781 L74.6064539,105.408873 C83.9645899,105.408873 91.5513348,112.994369 91.5513348,122.353754 L91.5513348,131.627709 C86.1839045,133.522482 80.5030213,134.754584 74.6064539,135.220781" id="Fill-12" fill="#000000"></path>
                    <path d="M74.6064539,135.220781 L74.6064539,105.408873 C76.0081674,105.408873 77.3703674,105.579734 78.6732191,105.901152 L78.6732191,134.771452 C77.3296045,134.960429 75.9749011,135.112704 74.6064539,135.220781" id="Fill-13" fill="#000000"></path>
                    <path d="M30.0414921,85.1851539 L30.0414921,122.729522 C41.0638798,130.71843 54.6152865,135.433342 69.2696348,135.433342 C83.9230461,135.433342 97.4739843,130.71843 108.496684,122.729522 L108.496684,85.1851539 L69.2696348,35.7587843 L30.0414921,85.1851539 Z" id="Fill-14" fill="#45291A"></path>
                    <path d="M35.378936,87.0454112 L35.378936,126.222639 C45.3191539,132.073134 56.9009775,135.433342 69.2696348,135.433342 C81.6376674,135.433342 93.2191787,132.073446 103.159397,126.223108 L103.159397,87.0454112 L69.2696348,44.343518 L35.378936,87.0454112 Z" id="Fill-15" fill="#FFFFFF"></path>
                    <path d="M108.496684,122.729522 L108.496684,87.0454112 L103.159397,87.0454112 C90.8553978,87.0454112 80.8770719,97.0238933 80.8770719,109.327736 L80.8770719,134.426919 C91.0609303,132.644127 100.452176,128.559713 108.496684,122.729522" id="Fill-16" fill="#45291A"></path>
                    <path d="M103.159397,126.223108 L103.159397,92.3823865 C93.8000112,92.3823865 86.2140472,99.9688191 86.2140472,109.327736 L86.2140472,133.266191 C92.2339966,131.693617 97.9242506,129.30391 103.159397,126.223108" id="Fill-17" fill="#FFC94F"></path>
                    <path d="M52.3242854,133.266191 L52.3242854,109.327736 C52.3242854,99.9688191 59.9097809,92.3823865 69.2696348,92.3823865 C78.6273022,92.3823865 86.2140472,99.9688191 86.2140472,109.327736 L86.2140472,133.266191 C80.8027303,134.678525 75.1235652,135.433342 69.2696348,135.433342 C63.4147674,135.433342 57.7360708,134.678525 52.3242854,133.266191" id="Fill-18" fill="#45291A"></path>
                    <path d="M57.661573,134.426919 L57.661573,109.327736 C57.661573,102.914994 62.8564247,97.7198303 69.2696348,97.7198303 C75.6814393,97.7198303 80.8770719,102.914994 80.8770719,109.327736 L80.8770719,134.426919 C77.1068921,135.085685 73.2287921,135.433342 69.2696348,135.433342 C65.310009,135.433342 61.4312843,135.085685 57.661573,134.426919" id="Fill-19" fill="#FC9E1C"></path>
                    <path d="M57.661573,134.426919 L57.661573,109.327736 C57.661573,97.0238933 47.6827787,87.0454112 35.378936,87.0454112 L30.0414921,87.0454112 L30.0414921,122.729522 C38.0856876,128.559245 47.4764652,132.645533 57.661573,134.426919" id="Fill-20" fill="#45291A"></path>
                    <path d="M35.378936,126.222639 L35.378936,92.3823865 C44.7370719,92.3823865 52.3242854,99.9688191 52.3242854,109.327736 L52.3242854,133.266191 C46.3033989,131.693617 40.6131449,129.303442 35.378936,126.222639" id="Fill-21" fill="#EB6629"></path>
                    <polygon id="Fill-22" fill="#45291A" points="46.8625225 72.5753551 60.2133944 51.3344371 69.2443337 44.1239292 79.1864258 53.4929978 94.4870461 76.1184494 77.4022281 64.5803562 79.011036 72.8542921 69.2696348 65.7362427 55.2882652 74.8530809 60.7642404 62.2765483"></polygon>
                    <path d="M35.378936,126.222639 L35.378936,92.3823865 C36.7804933,92.3823865 38.1423809,92.5541843 39.4457011,92.8746652 L39.4457011,128.429928 C38.0622607,127.73977 36.7056831,127.003538 35.378936,126.222639" id="Fill-23" fill="#C9541C"></path>
                    <polygon id="Fill-24" fill="#45291A" points="109.429078 72.7971303 97.643127 67.3667596 101.569955 63.0941494"></polygon>
                    <polygon id="Fill-25" fill="#45291A" points="110.335701 69.6880596 98.429336 64.201464 102.477516 59.9846101"></polygon>
                    <polygon id="Fill-26" fill="#45291A" points="28.8325045 72.7971303 40.6179865 67.3667596 36.6906899 63.0941494"></polygon>
                    <polygon id="Fill-27" fill="#45291A" points="27.9258809 69.6880596 39.831309 64.201464 35.7840663 59.9846101"></polygon>
                    <path d="M103.159397,126.222639 L103.159397,92.3823865 C101.756902,92.3823865 100.395015,92.5541843 99.0921629,92.8746652 L99.0921629,128.429928 C100.475603,127.73977 101.832493,127.003538 103.159397,126.222639" id="Fill-28" fill="#FFFFFF"></path>
                    <path d="M69.2696348,136.911115 C31.4958382,136.911115 0.873357303,106.288478 0.873357303,68.5153056 C0.873357303,30.741509 31.4958382,0.11902809 69.2696348,0.11902809 C107.042807,0.11902809 137.664507,30.741509 137.664507,68.5153056 C137.664507,106.288478 107.042807,136.911115 69.2696348,136.911115 Z M69.2696348,128.948445 C102.645878,128.948445 129.702306,101.891861 129.702306,68.5153056 C129.702306,35.1381258 102.645878,8.08122921 69.2696348,8.08122921 C35.8924551,8.08122921 8.83602697,35.1381258 8.83602697,68.5153056 C8.83602697,101.891861 35.8924551,128.948445 69.2696348,128.948445 L69.2696348,128.948445 Z" id="Fill-29" fill="#45291A"></path>
                    <polygon id="Fill-30" fill="#45291A" points="23.0435449 20.1044169 49.1371247 21.5290888 22.8690921 26.3099079"></polygon>
                    <polygon id="Fill-31" fill="#45291A" points="20.9986831 27.5726213 36.0191169 28.3938146 20.1907652 31.7735449"></polygon>
                </g>
            </g>
        </g>
    </g>
</svg>