<svg width="27" height="17" viewBox="0 0 27 17" xmlns="http://www.w3.org/2000/svg"><title>1488924671_81</title><path d="M17.398 8.438l7.627 6.672-.694.709-7.686-6.723-3.207 2.805-3.17-2.772-7.646 6.689-.729-.744L9.48 8.438l-7.625-6.67.694-.71 10.853 9.495 2.454-2.148-.006-.006h.014l8.392-7.342.73.745-7.587 6.636zm9.47 7.382V1.057A1.043 1.043 0 0 0 25.836 0h-.024a.942.942 0 0 0-.186.02V.003H2.137V.002H1.065L1.033 0H1.01C.452 0 0 .462 0 1.033V15.82c0 .582.463 1.054 1.033 1.054h24.802c.571 0 1.034-.472 1.034-1.054z" fill="#E9EADB"/></svg>