<svg width="21" height="21" viewBox="0 0 21 21" xmlns="http://www.w3.org/2000/svg"><title>Dribbble</title><path d="M20.787 8.387a10.527 10.527 0 0 0-1.582-3.757 10.496 10.496 0 0 0-2.835-2.835c-.56-.38-1.16-.705-1.783-.969a10.525 10.525 0 0 0-9.96.969A10.573 10.573 0 0 0 1.795 4.63 10.443 10.443 0 0 0 0 10.5a10.39 10.39 0 0 0 .826 4.088 10.4 10.4 0 0 0 .968 1.784c.376.556.807 1.077 1.28 1.553a10.518 10.518 0 0 0 3.338 2.248 10.47 10.47 0 0 0 4.089.826c.71 0 1.422-.071 2.114-.214a10.468 10.468 0 0 0 3.756-1.58 10.65 10.65 0 0 0 1.554-1.28c.474-.476.906-.997 1.28-1.553a10.489 10.489 0 0 0 1.582-3.757 10.623 10.623 0 0 0 0-4.228zm-1.322 2.023c-.13-.028-3.165-.681-6.246-.294-.064-.153-.127-.307-.194-.462-.186-.44-.387-.874-.596-1.3 3.541-1.447 4.978-3.524 4.996-3.55a8.932 8.932 0 0 1 2.04 5.606zm-3.043-6.638c-.022.033-1.299 1.978-4.685 3.245a45.564 45.564 0 0 0-3.35-5.23 8.932 8.932 0 0 1 8.036 1.985zm-8.07-1.978l-.001.002-.028.005c.01-.002.019-.003.029-.007zm-1.678.597a53.64 53.64 0 0 1 3.33 5.166C5.698 8.701 1.96 8.656 1.724 8.652a8.97 8.97 0 0 1 4.95-6.26zM1.532 10.5c0-.095.005-.189.008-.283.159.004 4.59.104 9.206-1.277.257.502.502 1.014.727 1.524a6.104 6.104 0 0 0-.353.108c-4.84 1.563-7.294 5.916-7.294 5.916l.004.005A8.933 8.933 0 0 1 1.532 10.5zm8.968 8.968a8.931 8.931 0 0 1-5.713-2.055c.119.096.201.156.201.156s1.72-3.748 7.037-5.601l.06-.019c1.263 3.278 1.782 6.024 1.916 6.808a8.936 8.936 0 0 1-3.5.711zm5.011-1.53c-.091-.542-.57-3.174-1.746-6.405 2.896-.463 5.403.331 5.589.392a8.97 8.97 0 0 1-3.843 6.012z" fill="#EF5C5C" fill-rule="evenodd"/></svg>