<svg width="216" height="268" viewBox="0 0 216 268" xmlns="http://www.w3.org/2000/svg"><title>iskra_07</title><g fill="none" fill-rule="evenodd"><path d="M106.804 154.048c40.215 0 72.818-32.602 72.818-72.818 0-40.217-32.603-72.818-72.818-72.818-40.218 0-72.82 32.6-72.82 72.818 0 40.216 32.602 72.818 72.82 72.818" fill="#CFDBD4"/><path d="M181.316 79.264C180.275 39.007 147.313 6.69 106.804 6.69c-40.511 0-73.473 32.317-74.514 72.574l30.746-38.74 11.981 15.19-2.837 8.037 4.805-5.652 29.819-37.57 27.351 34.466-2.206 8.617 4.671-5.513 13.949-17.575 30.747 38.74z" fill="#F5EDE3"/><path d="M106.804 117.624v41.528c36.091 0 66.202-25.611 73.15-59.65l-29.385-37.024-43.765 55.146z" fill="#45291A"/><path fill="#FFF" d="M146.443 91.15l4.08-18.984 22.115 27.654-11.812-2.985-7.564 26.32-9.029-19.097z"/><path d="M106.804 117.624v41.528c-36.093 0-66.204-25.611-73.152-59.65l29.384-37.024 43.768 55.146z" fill="#45291A"/><path fill="#FFF" d="M67.22 91.15l-4.08-18.984L41.026 99.82l11.811-2.985 7.564 26.32 9.028-19.097z"/><path d="M74.132 153.35v-8.434c0-14.555 11.803-26.358 26.358-26.358h6.314v41.83c-11.65 0-22.712-2.52-32.672-7.039" fill="#000"/><path d="M100.49 160.136v-35.264c-11.07 0-20.045 8.972-20.045 20.044v10.97a78.825 78.825 0 0 0 20.045 4.25" fill="#000"/><path d="M100.49 160.136v-35.264c-1.658 0-3.269.202-4.81.582v34.15c1.59.224 3.191.404 4.81.532m38.983-6.786v-8.434c0-14.555-11.802-26.358-26.356-26.358h-6.313v41.83c11.65 0 22.71-2.52 32.67-7.039" fill="#000"/><path d="M113.117 160.136v-35.264c11.07 0 20.044 8.972 20.044 20.044v10.97a78.818 78.818 0 0 1-20.044 4.25" fill="#000"/><path d="M113.117 160.136v-35.264c1.658 0 3.27.202 4.81.582v34.15c-1.59.224-3.192.404-4.81.532" fill="#000"/><path d="M60.4 100.949v44.411c13.04 9.45 29.07 15.028 46.404 15.028 17.333 0 33.363-5.578 46.402-15.028v-44.41l-46.402-58.467L60.4 100.95z" fill="#45291A"/><path d="M66.714 103.15v46.342c11.759 6.92 25.459 10.896 40.09 10.896 14.63 0 28.33-3.975 40.088-10.895v-46.344l-40.088-50.512-40.09 50.512z" fill="#FFF"/><path d="M153.206 145.36v-42.21h-6.314c-14.554 0-26.358 11.803-26.358 26.357v29.69a78.777 78.777 0 0 0 32.672-13.837" fill="#45291A"/><path d="M146.892 149.493v-40.03c-11.071 0-20.045 8.973-20.045 20.044v28.317a78.76 78.76 0 0 0 20.045-8.331" fill="#FFC94F"/><path d="M86.759 157.824v-28.317c0-11.07 8.973-20.045 20.045-20.045 11.069 0 20.043 8.974 20.043 20.045v28.317a79.28 79.28 0 0 1-20.043 2.564 79.286 79.286 0 0 1-20.045-2.564" fill="#45291A"/><path d="M93.073 159.197v-29.69c0-7.585 6.145-13.73 13.73-13.73 7.585 0 13.731 6.145 13.731 13.73v29.69a79.719 79.719 0 0 1-27.461 0" fill="#FC9E1C"/><path d="M93.073 159.197v-29.69c0-14.554-11.804-26.358-26.359-26.358h-6.313v42.211a78.755 78.755 0 0 0 32.672 13.837" fill="#45291A"/><path d="M66.714 149.492v-40.03c11.07 0 20.045 8.974 20.045 20.045v28.317a78.727 78.727 0 0 1-20.045-8.332" fill="#EB6629"/><path fill="#45291A" d="M80.298 86.033l15.793-25.126 10.683-8.53 11.76 11.083 18.1 26.764-20.21-13.649 1.903 9.788-11.523-8.42-16.539 10.784 6.478-14.877z"/><path d="M66.714 149.492v-40.03c1.658 0 3.27.204 4.81.583v42.058a79.075 79.075 0 0 1-4.81-2.61" fill="#C9541C"/><path fill="#45291A" d="M154.309 86.295l-13.942-6.424 4.645-5.054z"/><path fill="#45291A" d="M155.381 82.617l-14.084-6.49 4.789-4.988zM58.97 86.295l13.942-6.424-4.646-5.054z"/><path fill="#45291A" d="M57.898 82.617l14.083-6.49-4.787-4.988z"/><path d="M146.892 149.492v-40.03c-1.659 0-3.27.204-4.811.583v42.058a79.144 79.144 0 0 0 4.811-2.61" fill="#FFF"/><path d="M106.804 162.136c-44.683 0-80.906-36.224-80.906-80.906C25.898 36.547 62.12.324 106.804.324c44.682 0 80.904 36.223 80.904 80.906 0 44.682-36.222 80.906-80.904 80.906zm0-9.42c39.48 0 71.486-32.005 71.486-71.486 0-39.482-32.005-71.488-71.486-71.488-39.482 0-71.487 32.006-71.487 71.488 0 39.481 32.005 71.487 71.487 71.487z" fill="#45291A"/><path fill="#45291A" d="M52.123 23.965l30.866 1.685-31.073 5.655zm-2.419 8.834l17.768.971-18.724 3.998zM26.707 222.256c-.111.776-.554 3.63-1.33 8.561-.72-.112-3.933-.25-9.641-.415-3.879-.167-9.087-.333-15.625-.5.36-7.59.61-15.791.747-24.601.111-5.875.111-15.82 0-29.838 3.88-.333 7.286-.5 10.223-.5.886 0 3.38.055 7.481.167 4.1.111 6.732.166 7.896.166-.61 2.16-1.081 5.015-1.413 8.562-.056 0-3.851-.306-11.387-.915-.887 0-2.078-.028-3.574-.083v2.66c0 .996.027 2.465.083 4.405v6.815h4.904a86.777 86.777 0 0 1 8.644-.416c0 .942-.028 2.355-.083 4.24a157.82 157.82 0 0 0-.083 4.238c.055 0-2.687-.166-8.229-.499-1.33-.055-3.047-.166-5.153-.332-.111 1.94-.083 7.895.084 17.87.554.11 1.8.166 3.739.166-.443 0 1.303.055 5.237.165 3.435.111 5.928.14 7.48.084zm35.088-45.963c-.499 3.27-2.41 12.08-5.735 26.431-3.324 14.683-5.32 23.993-5.983 27.927-.942.11-3.547.332-7.814.665-1.329-6.705-5.568-25.24-12.716-55.604 3.27-.333 6.76-1.302 10.473-2.91.276 2.55 1.163 8.672 2.66 18.369 1.495 9.697 2.631 16.568 3.407 20.612.942-4.875 2.105-11.553 3.49-20.03 1.607-9.863 2.438-15.682 2.494-17.454 3.602.997 6.843 1.662 9.724 1.994zm29.742 45.963c-.111.776-.555 3.63-1.33 8.561-.72-.112-3.934-.25-9.641-.415-3.88-.167-9.087-.333-15.626-.5.36-7.59.61-15.791.748-24.601.111-5.875.111-15.82 0-29.838 3.879-.333 7.286-.5 10.223-.5.887 0 3.38.055 7.48.167 4.101.111 6.733.166 7.896.166-.609 2.16-1.08 5.015-1.413 8.562-.055 0-3.85-.306-11.387-.915-.886 0-2.077-.028-3.574-.083v2.66c0 .996.028 2.465.084 4.405v6.815H79.9a86.771 86.771 0 0 1 8.645-.416c0 .942-.028 2.355-.084 4.24a159.146 159.146 0 0 0-.082 4.238c.055 0-2.688-.166-8.229-.499-1.33-.055-3.047-.166-5.153-.332-.111 1.94-.084 7.895.083 17.87.554.11 1.8.166 3.74.166-.443 0 1.302.055 5.236.165 3.436.111 5.93.14 7.481.084zm36.154 5.154a649.772 649.772 0 0 1-8.56 3.324 274.109 274.109 0 0 0-10.556-23.439l-2.825.499c.055.277.11 2.16.165 5.652.111 6.704.36 11.857.749 15.459-.665.055-2.411.25-5.236.582-2.216.277-3.74.415-4.572.415.222-6.87.333-12.412.333-16.622 0-.167.027-3.436.083-9.808.055-6.372.082-10.999.082-13.88 0-4.266.028-9.586.084-15.958 1.774-.167 4.128-.249 7.064-.249 5.32 0 9.67.97 13.05 2.908 4.321 2.383 6.483 6.04 6.483 10.972 0 3.546-.707 6.912-2.12 10.098-1.413 3.186-3.256 5.5-5.527 6.94.72 1.829 2.16 4.876 4.322 9.143 3.214 6.317 5.54 10.97 6.981 13.964zm-13.38-39.064c0-2.937-.748-4.987-2.245-6.152-1.22-.886-3.325-1.33-6.316-1.33.055 5.985.11 12.635.165 19.948.72-.11 1.718-.305 2.992-.582 3.602-.997 5.404-4.958 5.404-11.884zm42.97 33.91c-.11.776-.554 3.63-1.33 8.561-.721-.112-3.935-.25-9.642-.415-3.879-.167-9.087-.333-15.625-.5.36-7.59.608-15.791.747-24.601.111-5.875.111-15.82 0-29.838 3.88-.333 7.287-.5 10.223-.5.888 0 3.38.055 7.481.167 4.1.111 6.733.166 7.896.166-.61 2.16-1.08 5.015-1.413 8.562-.056 0-3.851-.306-11.387-.915-.886 0-2.077-.028-3.574-.083v2.66c0 .996.027 2.465.083 4.405v6.815h4.904a86.774 86.774 0 0 1 8.644-.416c0 .942-.028 2.355-.084 4.24a158.88 158.88 0 0 0-.082 4.238c.055 0-2.687-.166-8.229-.499-1.33-.055-3.047-.166-5.153-.332-.11 1.94-.083 7.895.084 17.87.554.11 1.8.166 3.74.166-.444 0 1.302.055 5.236.165 3.435.111 5.929.14 7.48.084zm25.862-6.566c0 5.209-1.524 9.045-4.572 11.511-3.047 2.466-8.505 4.115-16.374 4.945.167-3.158.14-6.122-.083-8.893 3.714 0 6.65-.595 8.81-1.787 2.162-1.192 3.242-2.728 3.242-4.612 0-3.048-2.05-7.315-6.151-12.8-4.764-6.372-7.147-11.636-7.147-15.792 0-4.987 1.774-8.59 5.32-10.805 3.545-2.216 9.03-3.325 16.457-3.325-.223 3.768-.25 6.456-.084 8.062-8.311.167-12.467 1.884-12.467 5.153 0 1.663.304 3.131.914 4.406.554 1.053 2.16 3.546 4.82 7.48 4.877 7.148 7.315 12.633 7.315 16.457zm32.747-40.062c-.554 2.05-.97 4.988-1.247 8.81-.553 0-3.878-.277-9.974-.83.333 6.87.72 17.703 1.164 32.497.11 6.262.083 11.027-.083 14.297-1.109 0-2.784-.098-5.029-.292-2.244-.194-3.948-.291-5.112-.291.444-4.307.777-11.497.998-21.567.11-3.824.139-8.52.084-14.103-.111-7.633-.167-11.4-.167-11.29H186.05c.943-2.548 1.414-5.375 1.414-8.476 1.441.276 3.297.47 5.568.58a388.57 388.57 0 0 0 22.857.665zM35.06 261.587c-.584.116-1.5.39-2.747.819-.118-.274-.245-.994-.382-2.165-.994.995-2.027 1.492-3.099 1.492-.643 0-1.287-.38-1.93-1.14-.701-.858-1.052-1.852-1.052-2.982 0-1.697.604-2.828 1.813-3.392.857-.39 2.241-.898 4.152-1.52 0-.957-.156-1.512-.467-1.668-.566-.274-1.609-.41-3.129-.41.116-1.13.165-2.008.146-2.63 2.475.271 4.167.642 5.074 1.11.905.468 1.359 1.384 1.359 2.749 0-.156.01.662.028 2.455v4.329c0 1.286.08 2.27.235 2.953zm-3.216-6.639c-.487.176-1.12.43-1.9.761-.78.332-1.17.848-1.17 1.55 0 1.189.332 1.784.995 1.784.642 0 1.305-.38 1.988-1.14.117-1.131.146-2.116.087-2.955zm14.152 3.422c-.135.682-.145 1.638-.028 2.866-.76.058-1.52.254-2.28.584l-.586-1.227c-.858.624-1.872.935-3.04.935-.976 0-1.814-.565-2.516-1.696-.701-1.13-1.053-2.602-1.053-4.415 0-2.105.312-3.733.936-4.883.254-.487.672-.975 1.258-1.462.72-.624 1.403-.936 2.047-.936.39 0 1.17.214 2.338.644 0-.137-.018-1.111-.058-2.925-.02-.956-.058-2.115-.117-3.48a77.72 77.72 0 0 0 3.1-.32v16.315zm-3.011-.117c0-.37.01-1.159.03-2.369.02-1.15.029-2.017.029-2.601 0-.878-.03-1.492-.088-1.844a3.107 3.107 0 0 0-1.843-.584c-.545 0-.925.224-1.14.674-.253.506-.38 1.422-.38 2.747 0 3.159.595 4.737 1.784 4.737.604 0 1.14-.253 1.608-.76zm14.182-9.562c-.195.39-.722 1.94-1.578 4.65a371.831 371.831 0 0 1-1.346 4.21c-.098.196-.283.844-.556 1.944-.273 1.102-.42 1.82-.439 2.15-.76.04-1.589.155-2.484.351a5497.13 5497.13 0 0 0-3.832-13.305 17.868 17.868 0 0 0 2.895-.964c.78 3.996 1.345 6.52 1.696 7.573.136.41.292 1.082.468 2.017.234-1.15.487-2.369.76-3.654.76-2.652 1.18-4.523 1.258-5.615.682.176 1.735.39 3.158.643zm9.908 11.17c-.293.41-.975.81-2.047 1.2-.955.331-1.687.497-2.193.497-1.384 0-2.583-.479-3.597-1.433-1.111-1.053-1.666-2.788-1.666-5.205 0-4.426 1.695-6.638 5.087-6.638 1.247 0 2.222.673 2.924 2.018.643 1.229 1.023 2.924 1.14 5.088-1.637.136-3.675.252-6.11.35.018.975.243 1.74.672 2.297.428.555 1.004.832 1.725.832.975 0 2.027-.282 3.158-.848.176.566.478 1.18.907 1.842zm-3.364-6.549c-.175-1.755-.671-2.632-1.49-2.632-.449 0-.84.243-1.17.73-.351.546-.497 1.228-.439 2.048.546.078.995.078 1.346 0 .253-.02.838-.068 1.753-.146zm11.697-2.69c-1.95.078-3.275.711-3.977 1.9-.117 4.094-.087 7.135.088 9.123a17.41 17.41 0 0 0-3.274-.35c.155-1.658.233-3.539.233-5.644v-8.304c.663.195 1.676.322 3.041.38v1.637c.74-.74 1.764-1.219 3.071-1.433.116.721.39 1.618.818 2.69zm7.578.409a10.621 10.621 0 0 0-2.368.03c-.02.428-.05.944-.088 1.55-.137 1.519-.146 3.342-.029 5.467.02.33.302.721.848 1.17.487.409.936.692 1.345.847-.527.507-1.22 1.267-2.076 2.282-1.228-.585-2.077-1.268-2.544-2.048-.35-.585-.526-1.364-.526-2.339v-4.182c0-.292-.02-.779-.059-1.461-.039-.586-.049-1.005-.03-1.257a4.973 4.973 0 0 0-1.315.059 19.233 19.233 0 0 1-.117-2.282 6.24 6.24 0 0 1 .702-.058l.82-.118a.874.874 0 0 0 .116-.438c.019-.449.048-1.238.087-2.369a26.58 26.58 0 0 0 3.188-.993c0 .272-.06 1.549-.177 3.83a43.837 43.837 0 0 0 2.223-.234c-.097.8-.097 1.647 0 2.544zm5.054-7.106c0 .43-.195.819-.584 1.17-.39.35-.84.526-1.346.526-.507 0-.95-.166-1.33-.496-.38-.332-.57-.722-.57-1.17 0-.39.194-.76.585-1.111.39-.351.828-.527 1.315-.527.546 0 1.005.147 1.374.439.37.292.556.682.556 1.17zm-.38 17.398a13.423 13.423 0 0 0-3.187.644c.019-.449.029-2.905.029-7.37 0-.096-.01-.505-.03-1.227a93.01 93.01 0 0 1-.03-2.047l-.028-3.129c.935.117 2.008.156 3.216.117-.019.137-.078.868-.174 2.194a43.692 43.692 0 0 0-.088 3.04c0 1.97.039 3.461.116 4.474.039.702.098 1.803.176 3.304zm8.543-3.888c0 1.5-.453 2.626-1.36 3.377-.906.75-2.383 1.242-4.43 1.476-.02-.76-.166-1.647-.438-2.66 2.223-.156 3.333-.702 3.333-1.638 0-.487-.136-.886-.41-1.2-.175-.194-.672-.583-1.49-1.168-.878-.624-1.453-1.102-1.725-1.433-.546-.624-.82-1.383-.82-2.281 0-2.34 2.213-3.587 6.638-3.742a8.486 8.486 0 0 0 .234 2.426c-1.559.157-2.631.351-3.217.585-.487.195-.73.468-.73.819 0 .175.33.487.994.935 1.15.76 1.9 1.316 2.251 1.667.78.819 1.17 1.764 1.17 2.837zm5.17-13.51c0 .43-.194.819-.584 1.17a1.95 1.95 0 0 1-1.346.526c-.506 0-.95-.166-1.33-.496-.38-.332-.57-.722-.57-1.17 0-.39.195-.76.585-1.111.39-.351.829-.527 1.315-.527.548 0 1.005.147 1.375.439.37.292.555.682.555 1.17zm-.38 17.398a13.419 13.419 0 0 0-3.187.644c.02-.449.03-2.905.03-7.37 0-.096-.01-.505-.03-1.227-.02-.818-.029-1.5-.029-2.047l-.03-3.129c.936.117 2.008.156 3.218.117-.02.137-.078.868-.176 2.194a43.648 43.648 0 0 0-.088 3.04c0 1.97.039 3.461.117 4.474.038.702.098 1.803.175 3.304zm4.86-13.362v1.49a6.323 6.323 0 0 1 3.538-1.051c1.735 0 2.602 1.345 2.602 4.034v9.094a21.962 21.962 0 0 0-3.217-.321c.117-1.56.176-2.808.176-3.743v-4.473c.02-.683-.01-1.151-.088-1.405-.122-.39-.36-.585-.717-.585-.696 0-1.461.273-2.295.82.127 5.145.274 8.382.44 9.707-.235.04-1.297.107-3.188.205.02-.331.029-.79.029-1.374 0-1.481-.107-4.22-.321-8.218-.118-2.046-.234-3.352-.352-3.917 1.16 0 2.291-.088 3.392-.263zm16.784 7.895c0 3.002-.108 5.341-.322 7.017a3.953 3.953 0 0 1-1.316 2.485c-.487.43-1.13.868-1.93 1.316-.858.488-1.452.732-1.784.732-.194-.527-.623-1.258-1.286-2.194 1.442-.447 2.534-1.14 3.275-2.075.37-.468.516-1.121.438-1.96-.273.254-.73.477-1.373.673-.567.156-1.074.234-1.52.234-.664 0-1.336-.487-2.02-1.462-.798-1.15-1.198-2.768-1.198-4.855 0-4.775 1.16-7.163 3.48-7.163.74 0 1.667.176 2.777.526-.02-.194-.048-.848-.087-1.96a15.3 15.3 0 0 0 2.866.147v8.539zm-2.925-1.023v-3.159c-.35-.156-.8-.235-1.345-.235-.643 0-1.087.196-1.33.586-.243.39-.365 1.16-.365 2.31 0 3.412.447 5.117 1.344 5.117.663 0 1.22-.293 1.666-.878.021-.116.03-1.364.03-3.741zm17.925 6.754c-.586.116-1.502.39-2.749.819-.117-.274-.244-.994-.38-2.165-.995.995-2.027 1.492-3.1 1.492-.642 0-1.286-.38-1.93-1.14-.701-.858-1.052-1.852-1.052-2.982 0-1.697.605-2.828 1.813-3.392.858-.39 2.242-.898 4.152-1.52 0-.957-.155-1.512-.468-1.668-.565-.274-1.609-.41-3.129-.41.118-1.13.167-2.008.146-2.63 2.476.271 4.168.642 5.074 1.11.906.468 1.359 1.384 1.359 2.749 0-.156.01.662.03 2.455v4.329c0 1.286.078 2.27.234 2.953zm-3.217-6.639a39.38 39.38 0 0 0-1.9.761c-.78.332-1.17.848-1.17 1.55 0 1.189.332 1.784.994 1.784.644 0 1.306-.38 1.989-1.14.116-1.131.146-2.116.087-2.955zm13.626.908c0 3.002-.107 5.341-.321 7.017a3.948 3.948 0 0 1-1.317 2.485c-.486.43-1.13.868-1.93 1.316-.857.488-1.451.732-1.783.732-.194-.527-.623-1.258-1.286-2.194 1.443-.447 2.533-1.14 3.275-2.075.37-.468.516-1.121.438-1.96-.272.254-.73.477-1.375.673-.564.156-1.072.234-1.52.234-.662 0-1.335-.487-2.017-1.462-.8-1.15-1.199-2.768-1.199-4.855 0-4.775 1.16-7.163 3.48-7.163.74 0 1.666.176 2.777.526-.02-.194-.047-.848-.087-1.96.935.138 1.89.187 2.865.147v8.539zm-2.924-1.023v-3.159c-.35-.156-.8-.235-1.345-.235-.644 0-1.087.196-1.33.586-.244.39-.366 1.16-.366 2.31 0 3.412.448 5.117 1.345 5.117.663 0 1.219-.293 1.667-.878.02-.116.03-1.364.03-3.741zm13.973 5.028c-.293.41-.976.81-2.048 1.2-.955.331-1.685.497-2.193.497-1.383 0-2.583-.479-3.597-1.433-1.11-1.053-1.666-2.788-1.666-5.205 0-4.426 1.696-6.638 5.088-6.638 1.248 0 2.222.673 2.924 2.018.644 1.229 1.024 2.924 1.14 5.088a147.88 147.88 0 0 1-6.11.35c.019.975.243 1.74.672 2.297.428.555 1.004.832 1.725.832.974 0 2.027-.282 3.158-.848.175.566.477 1.18.907 1.842zm-3.364-6.549c-.176-1.755-.672-2.632-1.491-2.632-.448 0-.838.243-1.169.73-.351.546-.497 1.228-.439 2.048.546.078.994.078 1.345 0 .254-.02.838-.068 1.754-.146zm7.783-5.351v1.49a6.321 6.321 0 0 1 3.539-1.051c1.734 0 2.602 1.345 2.602 4.034v9.094a21.966 21.966 0 0 0-3.217-.321c.118-1.56.176-2.808.176-3.743v-4.473c.02-.683-.01-1.151-.088-1.405-.122-.39-.36-.585-.716-.585-.697 0-1.462.273-2.296.82.127 5.145.274 8.382.44 9.707-.235.04-1.297.107-3.188.205.02-.331.029-.79.029-1.374 0-1.481-.107-4.22-.321-8.218-.117-2.046-.235-3.352-.352-3.917 1.16 0 2.291-.088 3.392-.263zm15.698 11.491c-.351 1.053-.566 1.989-.644 2.807-2.632-.428-4.526-1.233-5.687-2.413-1.16-1.179-1.74-2.87-1.74-5.072 0-1.968.4-3.46 1.2-4.474.623-.78 1.355-1.35 2.193-1.711.838-.36 2.173-.658 4.006-.892l.32 2.603c-.955.04-1.686.127-2.193.263-1.617.468-2.426 1.773-2.426 3.918 0 2.632.965 4.192 2.895 4.678.78.196 1.471.293 2.076.293zm11.41-10.643c-.294.778-1.297 3.81-3.013 9.094-1.716 5.283-2.69 8.342-2.924 9.18-.877-.253-1.335-.38-1.374-.38a8.398 8.398 0 0 0-1.55-.233c.273-.605 1.023-2.74 2.252-6.404-.216-.584-.497-1.384-.848-2.398-.177-.546-.722-2.046-1.639-4.502-.876-2.398-1.442-3.899-1.695-4.504 1.286-.312 2.27-.614 2.953-.906.293.78.79 2.368 1.491 4.767.741 2.495 1.14 3.829 1.2 4.005.252-.819.657-2.339 1.213-4.561.555-2.222.872-3.578.95-4.065.838.429 1.832.73 2.983.907z"/></g></svg>