<svg width="85" height="56" viewBox="0 0 85 56" xmlns="http://www.w3.org/2000/svg"><title>logo</title><g fill="#232323" fill-rule="evenodd"><path d="M45.078 43.478c.075-.182.151-.363.23-.546 2.043-.296 3.698-.372 4.564-.123-.886-.064-2.633.203-4.794.67zm-2.063-.154a7.7 7.7 0 0 0-.165.668c-6.576 1.604-15.218 4.402-16.655 5.662 1.283-2.108 10.155-5.033 16.82-6.33zm9.182-15.927c-1.167 1.503-5.76 9.557-5.896 10.91-.347-1.695 4.185-9.649 5.896-10.91zm9.694-3.819c-.782 2.364-5.562 9.388-8.659 12.02 1.285-.555 3.36-2.153 5.167-4.24-5.08 7.02-7.608 5.591-7.778 4.5l.007-.005c-.354-.723-.25-1.85.397-2.924 3.5-4.781 7.534-8.494 10.866-9.35zm-4.263 18.46c-3.89-.77-7.898-.76-11.816-.253.24-.525.492-1.049.755-1.57.02.01.038.027.065.028.133.002.415-.101.965-1.306.353-.772 1.493-3.04 1.93-3.972-.748 2.53-.097 5.212 1.404 5.212 4.028 0 10.345-8.951 12.422-13.923.266-.832.447-1.773.067-1.773.72-1.638.267-2.863-.64-2.863-2.614 0-6.468 3.16-9.846 6.987 1.944-3.088 4.055-6.107 6.026-8.173.53-.554.257-.917-.34-1.057-.933-.017-2.551 2.193-3.484 3.368.22-1.632-1.746.4-2.61 1.63l.007-.02c-3.31 4.894-8.556 12.252-12.864 12.152-1.09-.025-1.84-1.514-1.88-2.764.252-.335.5-.654.742-.959.514-.657 1.477-1.828 2.323-2.529-1.077 1.276-1.77 2.397-1.216 2.944.227.223 1.062-.304 1.711-.769 2.44-1.827 7.056-6.721 6.715-8.049-.532.884-1.363 1.784-2.545 2.813.92-1.137 2.673-3.696 2.687-4.566-.064-.185-.196-.319-.457-.319-2.67 0-10.359 9.707-10.921 10.545.302-.97 3.459-6.496 2.407-6.496-.606 0-.006-2.728-.78-3.237-.414-.194-.78-.105-.92.503-1.516 6.527-11.629 20.616-16.49 20.616-1.86 0-1.032-6.175 1.275-9.041-1.395 2.648-1.993 6.702-1.505 7.427.446-5.688 6.058-14.487 10.244-14.487.043 1.599-1.634 4.183-2.473 5.266.169-.181.255-1.23.078-1.432-.306-.122-.586-.048-.957.2-.742.498-2.59 3.517-1.948 4.108.862.792-.364 1.403.216 1.986.887.893 6.12-5.903 6.12-9.491 0-1.91-1.395-2.896-2.367-2.924-4.357-.121-12.338 9.734-11.588 16.27.198 1.729 1.075 5.698 3.042 5.698 3.372 0 12.131-12.342 13.591-15.862-.955 2.425-2.62 5.747-3.668 7.83-.272.692-.423 1.25-.272 1.402.332.334-.532 1.719-.575 2.323.05.143.12.245.213.288.06 0 .098.008.124.02.12-.013.267-.099.456-.298.792-.836 3.58-5.434 6.167-9.006.013.44-.56 6.294 4.778 3.792-1.545 1.493-2.95 1.685-3.784 1.17.456.708 1.075 1.033 1.876 1.05 1.559 0 4.988-3.031 6.96-6.385-.925 1.92-2.96 5.962-3.65 8.011-.678.124-1.351.26-2.02.41.08-.223 1.62-.669.822-.685-6.69-.137-17.533 5.662-18.763 6.325-1.23.664 2.23.189 1.42.643-3.86 2.085-6.677 4.097-7.83 5.258-1.904 1.914-.648 1.848.48.714.29-.29 2.017-1.34 4.73-2.68l-.003.003c1.459-.7 4.09-1.24 2.605-.473-1.485.766-5.88 3.328-3.884 2.653 1.516-.513 10.934-5.92 21.797-8.37.174 1.28.857 1.694 1.32.256.061-.19.134-.384.2-.575 2.964-.583 6.01-.926 9.014-.87 1.583.03 1.27-.421.233-.906 2.314.01 4.607.205 6.831.641 2.077.408-.819-2.082-2.722-2.459z"/><path d="M40.63 35.431c3.285.078 10.427-9.437 11.223-12.01-3.216 3.608-7.591 10.446-11.222 12.01M8.795 27.622C7.628 29.124 1.997 40.069 1.86 41.423c-.015-3.705 5.224-12.54 6.935-13.801zm13.26.46c.549-.596.17-1.208-.444-1.587-.525-.446-5.331 7.544-5.077 6.956 1.116-2.587.5-2.802-.123-2.244-4.258 6.295-11.445 16.672-14.45 18.431.07-2.126.933-4.957 2.16-7.952.447-.978-.176 2.477.61.475 1.578-4.012 4.757-9.451 5.845-11.186.797-1.271-1.312.367-.222-1.528.485-.817.925-1.56 1.346-2.202.43-.658-.734.012-.282-.772 1.758-3.051-.094-3.507-.404-3.162C8.704 25.635 0 36.575 0 47.523c0 .712.29 1.625.74 1.948.06.585.186 1.287.356 1.962.438 2.019 2.618.272 6.262-3.394-1.572 2.464-4.281 4.99-5.64 5.166.225.433.472.712.726.712 2.257 0 7.947-8.556 12.04-15.091-.698 2.557-1.095 5.35-.755 8.058.335 2.672 2.185 3.355 2.043 2.189-.955-7.829 5.165-19.776 6.283-20.99zm40.003 8.22c-.168-1.7 3.268-8.106 9.732-12.242-4.55 3.731-6.057 6.017-6.152 6.484 2.91-3.442 6.985-6.78 10.648-8.19-2.761 3.827-11.038 13.948-14.228 13.948zm19.12 1.443c3.994-5.903 3.493-8.16 3.291-9.129-.262-.67-.597-.547-.597.152 0 5.12-8.308 12.15-10.736 12.15-2.909 0 3.979-17.98 5.02-19.102.053-.058.724-.13 1.028-.149-.404 2.088-2.767 5.071-1.987 5.071 1.051 0 3.366-2.932 3.278-4.014-.037-.459-.565-.946-.312-1.75.37-1.18-.686-2.578-1.978-2.578-6.499 0-20.249 14.18-18.292 18.792a8.382 8.382 0 0 0-.307 1.864c.178 1.063 2.67.575 5.803-2.165-1.868 2.218-4.463 4.014-5.693 3.948.103.435.267.715.49.715 2.925 0 8.797-6.597 12.345-11.312-.992 2.932-1.912 6.562-1.912 9.535v.087c.076 2.154 1.576 4.18 4.774 3.478a4.928 4.928 0 0 1-4.072.643c.364.587.913.942 1.737.942 3.792 0 10.516-6.9 11.563-12.557-.562 1.519-1.566 3.351-3.443 5.38zM67.7 18.947c5.266-1.448 9.973-8.211 9.363-12.443-.457 3.497-3.86 9.292-9.363 12.443m4.627-16.681c.618-1.864-1.337-2.908-2.82-1.124 1.5-.82 2.424-.393 2.82 1.124"/><path d="M37.266 13.151c-.558 1.08-1.209 3.2-1.173 3.715 1.752-3.827 4.534-8.798 6.614-9.532.047 2.503-7.027 11.827-7.594 11.806-.567-.022.745-4.37 2.153-5.989zm-4.34 5.926c.01.421.414 1.074.31 1.654-.206 1.144-.73 1.993.155 2.844.554.532 2.88-2.8 4.68-5.51.49-.704.983-1.43 1.45-2.13-.27.984-.739 2.376-.719 3.44.01.544.808 1.344.82 1.979.01.54.034.906.57.926.895.032 5.773-7.56 8.453-12.074-.633 1.468-4.445 8.197-3.877 8.748.858.83-.457 2.865.16 2.887.598.021 3.355-3.542 4.228-5.364.615-.933 1.284-1.954 1.957-2.965-.481 1.745-.17 5.03 1.888 5.109.197.007.42-.052.658-.157-.871.47-1.767.533-2.668-.134.79 2.725 4.119 2.24 7.987-4.396-.308 1.209.43 6.892 2.666 6.85 4.372-.082 14.928-8.64 14.88-15.226-.01-1.5-.885-2.377-1.502-2.407-.633-.032-1.4.664-1.729 1.004-.578.598 2.394-.888 2.405.303.036 4.117-10.573 14.297-14.73 13.566-1.293-5.743 6.953-16.147 10.351-16.21.778-.015-1.182 4.442-2.432 5.79.406-.667.928-2.066.297-2.054-.651.012-4.53 3.99-3.367 5.17.515.524-.413 1.083-.053 1.446.788.798 6.445-5.88 6.392-8.832a4.417 4.417 0 0 0-.361-1.634c-.724-1.278-2.401-.054-2.745-.412-1.366-1.425-7.256 4.838-8.4 7.874.026-.66-.466-.896-.883-.436-.45.931-4.907 7.7-7.459 7.6-.75-.03-.65-3.075-.15-3.598.754.73 6.948-5.785 6.446-6.314-.196-.206-.197-.662-.038-.951l-.013.016c.333-.64.398-1.094-.01-1.086-1.505.029-8.472 8.698-9.622 9.993 1.587-3.388 3.91-9.235 3.852-10.44-.017-.374-.552-2.227-1-.938-.682 1.959-8.518 14.098-11.073 15.904.398-2.197 1.801-6.04 3.653-8.008.551-.585-.037-1.277-.754-1.47.257-.719 1.083-3.26-.679-3.226-1.281.024-3.392 2.02-4.582 3.295 1.178-2.219 2.758-3.543 4.133-4.055-2.754-.715-9.627 9.137-9.544 13.63z"/><path d="M18.957 15.371c-2.544 3.61-5.56 8.455-5.224 11.227.075.615.78.711.208 2.158-.378.958.6 2.12 1.108.668C17.56 22.25 28.223 8.895 27.94 9.327c-.276.418-4.914 9.07-5.464 10.097-.237.484-.462.95-.658 1.375-.198.781-.047 1.531.407 1.94.53.478-.46 3.144.345 3.152.031 0 .05.002.07.003 1.858-3.01 7.143-11.025 8.053-12.05-.326.616-1.086 1.612-1.614 3.523a19.251 19.251 0 0 0-.349 5.879c.18 1.974 1.358 2.856 1.29 2.084-.598-6.716 5.488-16.303 6.322-17.2.188-.202.3-.812.228-1.001-.457-1.206-1.472.92-2.142.89-.67-.029-1.629 1.193-2.564 2.369-1.852 2.332-4.149 5.254-6.035 7.641 2.914-5.31 7.598-14.125 8.22-14.773.18-.19-.095-1.265-2.396-1.222-4.61.086-13.195 3.674-16.581 8.5-.585.832.014.971-.618 1.861-.373.526-.834 2.018-.758 2.677.154 1.35 2.51.748 3.08.123.22-.24-2.409.306-2.559-1.022-.152-1.352 5.872-9.23 16.537-9.405-.463.607-1.055 1.394-1.742 2.313-.036-1.992-7.202 8.237-10.848 13.773 1.757-3.301 4.074-7.235 5.094-8.344.668-.727-1.79-.702-4.3 2.861"/></g></svg>