<svg width="233" height="165" viewBox="0 0 233 165" xmlns="http://www.w3.org/2000/svg"><title>Group 6</title><defs><filter x="-43.5%" y="-65.9%" width="187%" height="257.6%" filterUnits="objectBoundingBox" id="a"><feOffset dy="11" in="SourceAlpha" result="shadowOffsetOuter1"/><feGaussianBlur stdDeviation="20.5" in="shadowOffsetOuter1" result="shadowBlurOuter1"/><feColorMatrix values="0 0 0 0 0 0 0 0 0 0 0 0 0 0 0 0 0 0 0.5 0" in="shadowBlurOuter1" result="shadowMatrixOuter1"/><feMerge><feMergeNode in="shadowMatrixOuter1"/><feMergeNode in="SourceGraphic"/></feMerge></filter></defs><g filter="url(#a)" transform="translate(40 29)" fill="none" fill-rule="evenodd"><path d="M153.364 39.656c0-.287-.067-.517-.2-.68-.144-.154-.382-.24-.716-.24h-21.074a.846.846 0 0 0-.62.24c-.154.163-.24.393-.24.68v44.17c0 .288.086.518.24.671.152.163.362.25.62.25h21.074c.334 0 .572-.087.715-.25.134-.153.2-.383.2-.671v-5.75c0-.318-.066-.547-.2-.7-.143-.144-.381-.221-.715-.221H138.13V65.537h10.937c.287 0 .516-.086.669-.25.162-.172.248-.41.248-.728v-5.693c0-.317-.086-.556-.248-.729-.153-.162-.382-.249-.669-.249H138.13V46.385h14.317c.334-.01.572-.096.715-.277.134-.173.2-.413.2-.7v-5.752zm-52.627 36.809c.009 2.712.707 4.763 2.11 6.163 1.393 1.41 3.435 2.11 6.136 2.119h7.559c2.672-.01 4.714-.71 6.118-2.12 1.412-1.399 2.118-3.45 2.128-6.162V60.477c0-.318-.086-.548-.238-.701-.162-.143-.392-.22-.678-.22h-9.62c-.315 0-.545.077-.697.22-.143.153-.22.383-.22.7v5.751c0 .288.077.518.22.671.152.164.382.25.696.25h2.978v7.706c0 .776-.2 1.352-.582 1.735-.39.375-.964.566-1.708.566h-4.124c-.744 0-1.317-.191-1.708-.566-.382-.383-.582-.959-.582-1.735V48.628c0-.748.19-1.322.563-1.716.382-.383.954-.584 1.727-.584h4.124c.744 0 1.317.201 1.708.584.382.394.582.968.582 1.716V53c0 .288.076.518.22.671.153.163.381.249.697.249h5.726c.286 0 .516-.086.678-.249.152-.153.238-.383.238-.67v-5.982c-.01-2.713-.716-4.764-2.128-6.173-1.404-1.4-3.446-2.1-6.118-2.11h-7.56c-2.7.01-4.742.71-6.136 2.11-1.402 1.41-2.1 3.46-2.11 6.173v29.447z" fill="#FFF"/><path d="M95.01 83.826c0 .316-.077.547-.22.7-.153.144-.381.22-.696.22H80.35c-2.702-.009-4.744-.709-6.147-2.118-1.393-1.4-2.09-3.451-2.099-6.163v-29.39c.01-2.712.706-4.783 2.1-6.201 1.402-1.419 3.444-2.128 6.146-2.138h6.872v-20.13c0-5.781-4.667-10.467-10.422-10.467-5.756 0-10.422 4.686-10.422 10.467v1.817a822.9 822.9 0 0 1 16.77-.041c.63.004 1.14.523 1.139 1.155l-.01 5.588a1.118 1.118 0 0 1-.341.817c-.226.224-.5.336-.817.333-27.102-.202-54.242.896-81.225 3.478a1.108 1.108 0 0 1-.88-.295 1.118 1.118 0 0 1-.377-.853v-5.578c0-.596.447-1.091 1.04-1.148 18.254-1.752 37.297-2.885 56.912-3.32V.317H95.01V20.56c19.76.439 38.938 1.584 57.315 3.358a1.148 1.148 0 0 1 1.039 1.148v5.577c0 .337-.128.627-.377.854a1.109 1.109 0 0 1-.881.294c-18.31-1.762-37.414-2.901-57.096-3.337v55.372zm-36.42 0c0 .288.076.518.22.671.152.163.38.25.696.25h5.955c.287 0 .515-.087.668-.25.163-.153.249-.383.249-.671V34.689a1.14 1.14 0 0 0-.87-1.119l-5.492-1.379a1.108 1.108 0 0 0-.985.21 1.12 1.12 0 0 0-.442.91v50.515zm28.632-6.671V46.328h-5.268c-.745 0-1.318.201-1.709.594-.382.394-.582.987-.582 1.764v26.168c0 .776.2 1.352.582 1.736.391.374.964.565 1.709.565h5.268z" fill="#00C494"/><path d="M52.863 47.018c-.01-2.713-.706-4.764-2.1-6.173-1.402-1.4-3.445-2.1-6.146-2.11H30.243c-.286 0-.515.087-.668.24-.162.164-.248.394-.248.681v44.17c0 .288.086.518.248.671.153.163.382.25.668.25H36.2c.286 0 .515-.087.668-.25.163-.153.248-.383.248-.671V69.332h3.952l3.837 14.61c.056.258.162.46.314.594.153.143.372.21.659.21h5.955c.325 0 .554-.086.707-.258.143-.173.181-.432.096-.777l-3.952-15.068c1.374-.604 2.414-1.544 3.121-2.808.706-1.266 1.059-2.857 1.059-4.784V47.018zM37.115 61.74V46.328h5.67c.744 0 1.316.201 1.708.584.381.394.582.968.582 1.716v10.813c0 .747-.2 1.323-.582 1.706-.392.393-.964.594-1.709.594h-5.669zM23.6 47.018c-.008-2.713-.715-4.764-2.128-6.173-1.412-1.4-3.474-2.1-6.175-2.11H1.554c-.286 0-.516.078-.668.222-.163.153-.25.383-.25.7v44.169c0 .288.087.518.25.671.152.163.382.25.668.25h13.743c2.701-.01 4.763-.71 6.175-2.12 1.413-1.399 2.12-3.45 2.129-6.162V65.882c-.01-.718-.162-1.361-.478-1.927a4.038 4.038 0 0 0-1.279-1.418 4.513 4.513 0 0 0-1.85-.738v-.115a4.653 4.653 0 0 0 1.85-.738 4.033 4.033 0 0 0 1.28-1.419c.315-.575.468-1.217.477-1.927V47.018zm-7.615 27.836c0 .776-.2 1.352-.583 1.735-.391.375-.964.566-1.708.566H8.483V65.537h5.21c.774 0 1.346.202 1.729.585.371.393.563.968.563 1.715v7.017zm0-19.152c0 .72-.2 1.276-.583 1.659-.391.383-.964.584-1.708.584H8.483V46.328h5.21c.774 0 1.346.201 1.729.584.371.394.563.968.563 1.716v7.074z" fill="#FFF"/></g></svg>