<svg width="216" height="217" viewBox="0 0 216 217" xmlns="http://www.w3.org/2000/svg"><title>iskra_07</title><defs><filter x="-48.6%" y="-40.9%" width="197.1%" height="197.8%" filterUnits="objectBoundingBox" id="a"><feOffset dy="11" in="SourceAlpha" result="shadowOffsetOuter1"/><feGaussianBlur stdDeviation="20.5" in="shadowOffsetOuter1" result="shadowBlurOuter1"/><feColorMatrix values="0 0 0 0 0 0 0 0 0 0 0 0 0 0 0 0 0 0 0.2 0" in="shadowBlurOuter1" result="shadowMatrixOuter1"/><feMerge><feMergeNode in="shadowMatrixOuter1"/><feMergeNode in="SourceGraphic"/></feMerge></filter></defs><g filter="url(#a)" transform="translate(39 29)" fill="none" fill-rule="evenodd"><path d="M69.27 130.074c33.997 0 61.558-27.561 61.558-61.559S103.267 6.956 69.27 6.956c-34 0-61.56 27.56-61.56 61.56 0 33.997 27.56 61.558 61.56 61.558" fill="#CFDBD4"/><path d="M132.26 66.854C131.38 32.82 103.516 5.5 69.27 5.5 35.023 5.5 7.158 32.82 6.277 66.853l25.993-32.75 10.128 12.84L40 53.74l4.061-4.778L69.27 17.199l23.122 29.138-1.865 7.284 3.949-4.66 11.792-14.858 25.993 32.75z" fill="#F5EDE3"/><path d="M69.27 99.282v35.106c30.51 0 55.965-21.65 61.839-50.426l-24.841-31.3-36.998 46.62z" fill="#45291A"/><path fill="#FFF" d="M102.78 76.902l3.45-16.05 18.694 23.379-9.985-2.523-6.395 22.25-7.632-16.144z"/><path d="M69.27 99.282v35.106c-30.512 0-55.967-21.65-61.841-50.426l24.84-31.3 37 46.62z" fill="#45291A"/><path fill="#FFF" d="M35.806 76.902l-3.448-16.05-18.696 23.379 9.985-2.523 6.394 22.25 7.633-16.144z"/><path d="M41.65 129.483v-7.13c0-12.304 9.978-22.282 22.282-22.282h5.338v35.362c-9.85 0-19.2-2.13-27.62-5.95" fill="#000"/><path d="M63.932 135.22v-29.81c-9.358 0-16.945 7.585-16.945 16.945v9.274a66.637 66.637 0 0 0 16.945 3.593" fill="#000"/><path d="M63.932 135.22v-29.81c-1.402 0-2.763.17-4.067.492v28.87a66.43 66.43 0 0 0 4.067.45m32.956-5.739v-7.13c0-12.304-9.978-22.282-22.282-22.282H69.27v35.362c9.848 0 19.199-2.13 27.618-5.95" fill="#000"/><path d="M74.606 135.22v-29.81c9.359 0 16.945 7.585 16.945 16.945v9.274a66.63 66.63 0 0 1-16.945 3.593" fill="#000"/><path d="M74.606 135.22v-29.81c1.402 0 2.764.17 4.067.492v28.87a67.134 67.134 0 0 1-4.067.45" fill="#000"/><path d="M30.041 85.185v37.545c11.023 7.988 24.574 12.703 39.229 12.703a66.62 66.62 0 0 0 39.227-12.703V85.185L69.27 35.76 30.04 85.185z" fill="#45291A"/><path d="M35.379 87.045v39.178c9.94 5.85 21.522 9.21 33.89 9.21 12.369 0 23.95-3.36 33.89-9.21V87.045L69.27 44.344 35.38 87.045z" fill="#FFF"/><path d="M108.497 122.73V87.045h-5.338c-12.304 0-22.282 9.979-22.282 22.283v25.099a66.597 66.597 0 0 0 27.62-11.697" fill="#45291A"/><path d="M103.16 126.223v-33.84c-9.36 0-16.946 7.586-16.946 16.945v23.938a66.581 66.581 0 0 0 16.945-7.043" fill="#FFC94F"/><path d="M52.324 133.266v-23.938c0-9.36 7.586-16.946 16.946-16.946 9.357 0 16.944 7.587 16.944 16.946v23.938a67.022 67.022 0 0 1-16.944 2.167 67.026 67.026 0 0 1-16.946-2.167" fill="#45291A"/><path d="M57.662 134.427v-25.1c0-6.412 5.194-11.607 11.608-11.607 6.411 0 11.607 5.195 11.607 11.608v25.099a67.393 67.393 0 0 1-23.215 0" fill="#FC9E1C"/><path d="M57.662 134.427v-25.1c0-12.303-9.98-22.282-22.283-22.282H30.04v35.685a66.578 66.578 0 0 0 27.62 11.697" fill="#45291A"/><path d="M35.379 126.223v-33.84c9.358 0 16.945 7.586 16.945 16.945v23.938a66.554 66.554 0 0 1-16.945-7.043" fill="#EB6629"/><path fill="#45291A" d="M46.863 72.575l13.35-21.24 9.031-7.211 9.942 9.369 15.301 22.625L77.402 64.58l1.609 8.274-9.741-7.118-13.982 9.117 5.476-12.576z"/><path d="M35.379 126.223v-33.84c1.401 0 2.763.171 4.067.492v35.555a66.848 66.848 0 0 1-4.067-2.207" fill="#C9541C"/><path fill="#45291A" d="M109.43 72.797l-11.787-5.43 3.927-4.273z"/><path fill="#45291A" d="M110.336 69.688l-11.907-5.487 4.049-4.216zm-81.503 3.109l11.785-5.43-3.927-4.273z"/><path fill="#45291A" d="M27.926 69.688l11.905-5.487-4.047-4.216z"/><path d="M103.16 126.223v-33.84c-1.403 0-2.765.171-4.068.492v35.555a66.907 66.907 0 0 0 4.067-2.207" fill="#FFF"/><path d="M69.27 136.911c-37.774 0-68.397-30.623-68.397-68.396C.873 30.742 31.496.12 69.27.12c37.773 0 68.395 30.623 68.395 68.396 0 37.773-30.622 68.396-68.395 68.396zm0-7.963c33.376 0 60.432-27.056 60.432-60.433 0-33.377-27.056-60.434-60.432-60.434-33.378 0-60.434 27.057-60.434 60.434 0 33.377 27.056 60.433 60.434 60.433z" fill="#45291A"/><path fill="#45291A" d="M23.044 20.104l26.093 1.425-26.268 4.78zm-2.045 7.469l15.02.82-15.828 3.38z"/></g></svg>