<?xml version="1.0" encoding="UTF-8"?>
<svg width="24px" height="15px" viewBox="0 0 24 15" version="1.1" xmlns="http://www.w3.org/2000/svg" xmlns:xlink="http://www.w3.org/1999/xlink">
    <!-- Generator: Sketch 47 (45396) - http://www.bohemiancoding.com/sketch -->
    <title>Group</title>
    <desc>Created with Sketch.</desc>
    <defs></defs>
    <g id="Page-1" stroke="none" stroke-width="1" fill="none" fill-rule="evenodd">
        <g id="index" transform="translate(-30.000000, -742.000000)" fill-rule="nonzero" fill="#EF5C5C">
            <g id="socials" transform="translate(30.000000, 660.000000)">
                <g id="Group" transform="translate(0.000000, 82.000000)">
                    <path d="M6.97971014,0 C7.68115942,0 8.31884058,0.0579150579 8.89855072,0.185328185 C9.47246377,0.306949807 9.96521739,0.50965251 10.3826087,0.793436293 C10.7942029,1.07142857 11.1130435,1.44787645 11.3391304,1.91119691 C11.5652174,2.37451737 11.6753623,2.95366795 11.6753623,3.63706564 C11.6753623,4.37837838 11.5072464,4.99227799 11.1710145,5.49034749 C10.8347826,5.98262548 10.3362319,6.38803089 9.66956522,6.7007722 C10.573913,6.96138996 11.2463768,7.41891892 11.6869565,8.06756757 C12.1333333,8.72200772 12.3536232,9.503861 12.3536232,10.4247104 C12.3536232,11.1718147 12.2086957,11.8088803 11.9246377,12.3474903 C11.6347826,12.8918919 11.2463768,13.3378378 10.7594203,13.6795367 C10.2724638,14.0212355 9.71594203,14.2760618 9.08985507,14.4440154 C8.46956522,14.6061776 7.82608696,14.6930502 7.17101449,14.6930502 L0.052173913,14.6930502 L0.052173913,0 L6.97971014,0 Z M6.56231884,5.93050193 C7.13623188,5.93050193 7.6115942,5.7972973 7.9884058,5.51930502 C8.35942029,5.24710425 8.53913043,4.8011583 8.53913043,4.18146718 C8.53913043,3.83976834 8.48115942,3.55598456 8.35942029,3.33590734 C8.23188406,3.11583012 8.06956522,2.94787645 7.86086957,2.82625483 C7.65217391,2.6988417 7.42028986,2.61776062 7.14782609,2.56563707 C6.88115942,2.51351351 6.60289855,2.49034749 6.31304348,2.49034749 L3.28695652,2.49034749 L3.28695652,5.92471042 L6.56231884,5.92471042 L6.56231884,5.93050193 Z M6.74202899,12.1853282 C7.06086957,12.1853282 7.36231884,12.1563707 7.65217391,12.0926641 C7.94202899,12.0289575 8.19710145,11.9305019 8.4173913,11.7799228 C8.63188406,11.6351351 8.8115942,11.4440154 8.94492754,11.1949807 C9.07826087,10.9459459 9.13623188,10.6274131 9.13623188,10.2451737 C9.13623188,9.48648649 8.92173913,8.95366795 8.49855072,8.62355212 C8.07536232,8.2992278 7.50724638,8.14285714 6.8115942,8.14285714 L3.29275362,8.14285714 L3.29275362,12.1853282 L6.74202899,12.1853282 L6.74202899,12.1853282 Z" id="XMLID_102_"></path>
                    <path d="M16.973913,12.1332046 C17.4144928,12.5617761 18.0463768,12.7760618 18.8637681,12.7760618 C19.4550725,12.7760618 19.9652174,12.6254826 20.3884058,12.3301158 C20.8115942,12.034749 21.0724638,11.7162162 21.1710145,11.3861004 L23.7449275,11.3861004 C23.3333333,12.6660232 22.7014493,13.5810811 21.8492754,14.1312741 C21.0028986,14.6814672 19.9710145,14.9594595 18.7652174,14.9594595 C17.9246377,14.9594595 17.1710145,14.8262548 16.4927536,14.5540541 C15.8144928,14.2818533 15.2521739,13.9054054 14.7768116,13.4131274 C14.3130435,12.9150579 13.9536232,12.3301158 13.6985507,11.6409266 C13.4434783,10.957529 13.315942,10.1988417 13.315942,9.37644788 C13.315942,8.58301158 13.4492754,7.83590734 13.7101449,7.15250965 C13.9768116,6.46332046 14.342029,5.86679537 14.8231884,5.36872587 C15.3043478,4.86486486 15.8782609,4.47104247 16.5507246,4.18146718 C17.2173913,3.89189189 17.9536232,3.74710425 18.7710145,3.74710425 C19.6695652,3.74710425 20.457971,3.92084942 21.1362319,4.27413127 C21.8086957,4.62162162 22.3594203,5.09073359 22.7942029,5.68146718 C23.2289855,6.27220077 23.5362319,6.94401544 23.7275362,7.6969112 C23.9188406,8.44980695 23.9884058,9.23745174 23.9304348,10.0656371 L16.2492754,10.0656371 C16.2492754,10.9111969 16.5333333,11.7104247 16.973913,12.1332046 Z M20.3304348,6.55019305 C19.9826087,6.16795367 19.3971014,5.95945946 18.6782609,5.95945946 C18.2086957,5.95945946 17.826087,6.04054054 17.5130435,6.1969112 C17.2115942,6.35328185 16.9623188,6.55019305 16.7710145,6.78185328 C16.5797101,7.01930502 16.4521739,7.26833977 16.3768116,7.52895753 C16.3014493,7.78957529 16.2550725,8.02123552 16.2434783,8.22972973 L21.0028986,8.22972973 C20.9391304,7.48841699 20.684058,6.93822394 20.3304348,6.55019305 Z" id="XMLID_99_"></path>
                    <rect id="XMLID_98_" x="15.6521739" y="0.984555985" width="5.95942029" height="1.44787645"></rect>
                </g>
            </g>
        </g>
    </g>
</svg>