<?xml version="1.0" encoding="UTF-8"?>
<svg width="6px" height="10px" viewBox="0 0 6 10" version="1.1" xmlns="http://www.w3.org/2000/svg" xmlns:xlink="http://www.w3.org/1999/xlink">
    <!-- Generator: Sketch 47 (45396) - http://www.bohemiancoding.com/sketch -->
    <title>Combined Shape</title>
    <desc>Created with Sketch.</desc>
    <defs>
        <path d="M1290,47 L1290,42 L1289,42 L1289,47.5 L1289,48 L1295,48 L1295,47 L1290,47 Z" id="path-1"></path>
    </defs>
    <g id="Page-1" stroke="none" stroke-width="1" fill="none" fill-rule="evenodd">
        <g id="everest_project" transform="translate(-1287.000000, -40.000000)">
            <g id="Combined-Shape" transform="translate(1292.000000, 45.000000) rotate(-315.000000) translate(-1292.000000, -45.000000) ">
                <use fill="#D8D8D8" fill-rule="evenodd" xlink:href="#path-1"></use>
                <path stroke="#232323" stroke-width="1" d="M1289.5,47.5 L1289,47.5 L1289.5,48 L1289.5,47.5 Z M1294.5,47.5 L1294.5,48 L1295,47.5 L1294.5,47.5 Z M1289.5,42.5 L1289.5,42 L1289,42.5 L1289.5,42.5 Z M1294.5,47.5 L1289.5,47.5 L1289.5,42.5 L1290,42.5 L1289.5,42 L1289.5,47.5 L1295,47.5 L1294.5,47 L1294.5,47.5 Z"></path>
            </g>
        </g>
    </g>
</svg>