<?xml version="1.0" encoding="UTF-8"?>
<svg width="27px" height="17px" viewBox="0 0 27 17" version="1.1" xmlns="http://www.w3.org/2000/svg" xmlns:xlink="http://www.w3.org/1999/xlink">
    <!-- Generator: Sketch 47 (45396) - http://www.bohemiancoding.com/sketch -->
    <title>1488924671_81</title>
    <desc>Created with Sketch.</desc>
    <defs></defs>
    <g id="Page-1" stroke="none" stroke-width="1" fill="none" fill-rule="evenodd">
        <g id="index" transform="translate(-1367.000000, -727.000000)" fill-rule="nonzero" fill="#E9EADB">
            <g id="1488924671_81" transform="translate(1367.000000, 727.000000)">
                <g id="Livello_1">
                    <g id="Livello_106">
                        <path d="M17.3975745,8.43805747 L25.0253617,15.1102644 L24.3308298,15.8189885 L16.6450213,9.09636782 L13.4381489,11.9013678 L10.2688085,9.129 L2.62206383,15.8180115 L1.89306383,15.0741149 L9.4787234,8.43786207 L1.85361702,1.76721839 L2.54814894,1.05849425 L13.401,10.5525057 L15.8553191,8.40542529 L15.848617,8.39917241 L15.8625957,8.39917241 L24.255383,1.05693103 L24.9851489,1.8016092 L17.3975745,8.43805747 Z M26.8686383,15.8197701 L26.8686383,1.05732184 C26.8686383,0.47345977 26.406,0 25.8353617,0 C25.8313404,0 25.8275106,0.000586206897 25.8234894,0.000781609195 C25.8194681,0.000586206897 25.8154468,0 25.8114255,0 C25.7476596,0 25.686,0.00683908046 25.6247234,0.0191494253 L25.6247234,0.00351724138 L2.1366383,0.00351724138 L2.1366383,0.00195402299 L1.06544681,0.00195402299 C1.0547234,0.00136781609 1.04419149,0 1.0332766,0 C1.02944681,0 1.02542553,0.000586206897 1.02140426,0.000781609195 C1.01719149,0.000586206897 1.01355319,0 1.00934043,0 C0.451723404,0 0,0.462321839 0,1.03250575 C0,1.0366092 0.000574468085,1.04071264 0.000574468085,1.04481609 C0.000574468085,1.04891954 0,1.05321839 0,1.05732184 L0,15.8197701 C0,16.4018736 0.462638298,16.8741609 1.0332766,16.8741609 L25.8351702,16.8741609 C26.406,16.8739655 26.8686383,16.4018736 26.8686383,15.8197701 L26.8686383,15.8197701 Z" id="Shape"></path>
                    </g>
                </g>
            </g>
        </g>
    </g>
</svg>