<?xml version="1.0" encoding="UTF-8"?>
<svg width="21px" height="21px" viewBox="0 0 21 21" version="1.1" xmlns="http://www.w3.org/2000/svg" xmlns:xlink="http://www.w3.org/1999/xlink">
    <!-- Generator: Sketch 47 (45396) - http://www.bohemiancoding.com/sketch -->
    <title>Dribbble</title>
    <desc>Created with Sketch.</desc>
    <defs></defs>
    <g id="Page-1" stroke="none" stroke-width="1" fill="none" fill-rule="evenodd">
        <g id="index" transform="translate(-32.000000, -700.000000)" fill="#EF5C5C">
            <g id="socials" transform="translate(30.000000, 660.000000)">
                <path d="M22.7868895,48.3866129 C22.6485891,47.7125012 22.4412206,47.0470845 22.1731508,46.4125105 C21.9113153,45.7902409 21.5841849,45.1902831 21.2050483,44.6296991 C20.8309975,44.0742008 20.3987063,43.5506937 19.9245805,43.0765679 C19.4491422,42.6012937 18.9269476,42.170315 18.3699728,41.7951158 C17.8093888,41.4148308 17.2092669,41.0901612 16.5869973,40.8260289 C15.9522593,40.5594356 15.287991,40.3519031 14.6138793,40.2149152 C13.9227055,40.0728415 13.2115168,40 12.5003281,40 C11.7878269,40 11.0766382,40.0728415 10.3851364,40.2147511 C9.71102466,40.351739 9.04659229,40.5592716 8.41201837,40.8258648 C7.78974876,41.0899972 7.18962689,41.4148308 6.62773038,41.7949517 C6.07206806,42.170315 5.54987344,42.6011297 5.07443517,43.0764039 C4.60030937,43.5505297 4.16933065,44.0740367 3.79396738,44.629535 C3.41483079,45.1901191 3.08770038,45.7900769 2.82586482,46.4123465 C2.55664667,47.0469204 2.35042655,47.7123371 2.21212618,48.3864489 C2.07169307,49.0768023 2,49.787991 2,50.4990157 C2,51.2126652 2.07169307,51.9236899 2.2124543,52.6151917 C2.35075466,53.2893035 2.55697478,53.9535718 2.82619293,54.5868332 C3.0880285,55.2091028 3.4151589,55.8115215 3.79429549,56.3721056 C4.16965876,56.9276038 4.60063748,57.44865 5.07476329,57.9252367 C5.55020156,58.3993625 6.07239618,58.8290288 6.6280585,59.2055405 C7.18979094,59.584513 7.78991282,59.910495 8.41234649,60.173479 C9.04708447,60.4426971 9.71135277,60.6476048 10.3854645,60.7845927 C11.0769663,60.9278148 11.7881551,60.9993438 12.5006562,60.9993438 C13.2118449,60.9993438 13.9230337,60.9278148 14.6145355,60.7845927 C15.2886472,60.6476048 15.9530796,60.442533 16.5876535,60.173479 C17.2099231,59.910495 17.810045,59.584513 18.370629,59.2055405 C18.9274398,58.8290288 19.4497984,58.3993625 19.9252367,57.9252367 C20.3993625,57.44865 20.8314896,56.9276038 21.2057045,56.3721056 C21.5848411,55.8115215 21.9119715,55.2091028 22.1738071,54.5868332 C22.4417128,53.9534077 22.6492453,53.2893035 22.7875457,52.6151917 C22.9283069,51.9238539 23,51.2126652 23,50.4990157 C22.9993438,49.787991 22.9276507,49.0768023 22.7868895,48.3866129 Z M21.464587,50.4100966 C21.3349817,50.3817146 18.2999203,49.7286022 15.219251,50.1162698 C15.1551045,49.9632043 15.0921065,49.8088263 15.0253351,49.6544483 C14.838966,49.2149386 14.6376676,48.7803506 14.4289866,48.3531452 C17.970165,46.9074716 19.4074716,44.829521 19.4246977,44.8049123 C20.6817053,46.3322865 21.4435877,48.2829287 21.464587,50.4100966 Z M18.4221431,43.771679 C18.3999953,43.8049827 17.1231368,45.7495547 13.7374848,47.0173901 C12.2051889,44.2013453 10.5209759,41.9640949 10.3864489,41.7864207 C11.0643339,41.6221993 11.7719134,41.5332802 12.5003281,41.5332802 C14.7697338,41.5334443 16.8429268,42.3803084 18.4221431,43.771679 Z M10.3518328,41.7938033 C10.3518328,41.7951158 10.3505203,41.7962642 10.3505203,41.7962642 C10.3505203,41.7962642 10.3393644,41.798725 10.3232868,41.8011859 C10.3332943,41.7988891 10.3419893,41.7975766 10.3518328,41.7938033 Z M8.67385394,42.3914643 C8.79361582,42.550764 10.4519078,44.7990063 12.0038905,47.5569748 C7.6983688,48.701439 3.96081372,48.6558311 3.72489922,48.6520577 C4.30648261,45.8742383 6.17214306,43.5716931 8.67385394,42.3914643 Z M3.53229587,50.4990157 C3.53229587,50.4040264 3.53721759,50.3101856 3.53967845,50.2163448 C3.69897816,50.2201181 8.12918346,50.3200291 12.745922,48.9385019 C13.0026718,49.4410097 13.2484297,49.9533608 13.4731883,50.4632511 C13.3545749,50.4954064 13.2372738,50.5311709 13.1199728,50.5707087 C8.28093653,52.1336833 5.82631012,56.4869457 5.82631012,56.4869457 C5.82631012,56.4869457 5.83008343,56.490719 5.83008343,56.4918674 C4.40163589,54.9028077 3.53229587,52.8028733 3.53229587,50.4990157 Z M12.5003281,59.467212 C10.329685,59.467212 8.3391769,58.6956501 6.78719415,57.4115731 C6.90580763,57.5078748 6.98849255,57.5684119 6.98849255,57.5684119 C6.98849255,57.5684119 8.70715759,53.8201931 14.0252414,51.967001 C14.0449283,51.9596184 14.0659276,51.9546967 14.0857786,51.9484625 C15.3477079,55.2263289 15.8674416,57.9721571 16.0008203,58.7560232 C14.9252601,59.212923 13.7412581,59.467212 12.5003281,59.467212 Z M17.5109684,57.9362286 C17.4195885,57.3954955 16.9416893,54.763359 15.7650698,51.532413 C18.6605184,51.0694431 21.1682994,51.8633168 21.3535202,51.9238539 C20.9545327,54.4226118 19.5234602,56.5770132 17.5109684,57.9362286 Z" id="Dribbble"></path>
            </g>
        </g>
    </g>
</svg>